<?xml version="1.0" encoding="UTF-8" standalone="no"?>
<svg
   xmlns:dc="http://purl.org/dc/elements/1.1/"
   xmlns:cc="http://creativecommons.org/ns#"
   xmlns:rdf="http://www.w3.org/1999/02/22-rdf-syntax-ns#"
   xmlns:svg="http://www.w3.org/2000/svg"
   xmlns="http://www.w3.org/2000/svg"
   xmlns:sodipodi="http://sodipodi.sourceforge.net/DTD/sodipodi-0.dtd"
   xmlns:inkscape="http://www.inkscape.org/namespaces/inkscape"
   version="1.1"
   id="Capa_1"
   x="0px"
   y="0px"
   width="512px"
   height="512px"
   viewBox="0 0 512 512"
   style="enable-background:new 0 0 512 512;;opacity:1"
   xml:space="preserve"
   class=""
   sodipodi:docname="apple.svg"
   inkscape:version="0.92.2 (5c3e80d, 2017-08-06)"><sodipodi:namedview
     pagecolor="#ffffff"
     bordercolor="#666666"
     borderopacity="1"
     objecttolerance="10"
     gridtolerance="10"
     guidetolerance="10"
     inkscape:pageopacity="0"
     inkscape:pageshadow="2"
     inkscape:window-width="640"
     inkscape:window-height="480"
     id="namedview831"
     showgrid="false"
     inkscape:zoom="0.4609375"
     inkscape:cx="146.44068"
     inkscape:cy="256"
     inkscape:window-x="0"
     inkscape:window-y="0"
     inkscape:window-maximized="0"
     inkscape:current-layer="Capa_1" /><metadata
     id="metadata835"><rdf:RDF><cc:Work
         rdf:about=""><dc:format>image/svg+xml</dc:format><dc:type
           rdf:resource="http://purl.org/dc/dcmitype/StillImage" /></cc:Work></rdf:RDF></metadata><defs
     id="defs833" /><g
     id="g828"><g
       id="g826"><path
         id="path824"
         fill="#000000"
         data-old_color="#000000"
         class="active-path"
         data-original="#000000"
         d="M395.748,272.046c-0.646-64.841,52.88-95.938,55.271-97.483c-30.075-44.01-76.925-50.039-93.62-50.736   c-39.871-4.037-77.798,23.474-98.033,23.474c-20.184,0-51.409-22.877-84.476-22.276c-43.458,0.646-83.529,25.269-105.906,64.19   c-45.152,78.35-11.563,194.42,32.445,257.963c21.504,31.104,47.146,66.038,80.813,64.79c32.421-1.294,44.681-20.979,83.878-20.979   c39.196,0,50.215,20.979,84.524,20.335c34.888-0.648,56.991-31.699,78.347-62.898c24.694-36.084,34.862-71.019,35.462-72.812   C463.678,375.26,396.422,349.495,395.748,272.046z M331.28,81.761C349.149,60.082,361.21,30.005,357.92,0   c-25.739,1.048-56.938,17.145-75.405,38.775c-16.57,19.188-31.075,49.813-27.188,79.218   C284.061,120.235,313.392,103.391,331.28,81.761z" /></g></g></svg>