<?xml version="1.0" encoding="UTF-8" standalone="no"?>
<!-- Generator: Adobe Illustrator 19.0.0, SVG Export Plug-In . SVG Version: 6.00 Build 0)  -->

<svg
   xmlns:dc="http://purl.org/dc/elements/1.1/"
   xmlns:cc="http://creativecommons.org/ns#"
   xmlns:rdf="http://www.w3.org/1999/02/22-rdf-syntax-ns#"
   xmlns:svg="http://www.w3.org/2000/svg"
   xmlns="http://www.w3.org/2000/svg"
   xmlns:sodipodi="http://sodipodi.sourceforge.net/DTD/sodipodi-0.dtd"
   xmlns:inkscape="http://www.inkscape.org/namespaces/inkscape"
   version="1.1"
   id="Layer_1"
   x="0px"
   y="0px"
   viewBox="0 0 512 512"
   style="enable-background:new 0 0 512 512;;opacity:1"
   xml:space="preserve"
   width="512px"
   height="512px"
   sodipodi:docname="java-script.svg"
   inkscape:version="0.92.2 (5c3e80d, 2017-08-06)"><sodipodi:namedview
     pagecolor="#ffffff"
     bordercolor="#666666"
     borderopacity="1"
     objecttolerance="10"
     gridtolerance="10"
     guidetolerance="10"
     inkscape:pageopacity="0"
     inkscape:pageshadow="2"
     inkscape:window-width="640"
     inkscape:window-height="480"
     id="namedview2707"
     showgrid="false"
     inkscape:zoom="0.4609375"
     inkscape:cx="146.44068"
     inkscape:cy="256"
     inkscape:window-x="0"
     inkscape:window-y="0"
     inkscape:window-maximized="0"
     inkscape:current-layer="Layer_1" /><metadata
     id="metadata2711"><rdf:RDF><cc:Work
         rdf:about=""><dc:format>image/svg+xml</dc:format><dc:type
           rdf:resource="http://purl.org/dc/dcmitype/StillImage" /></cc:Work></rdf:RDF></metadata><defs
     id="defs2709" /><g
     id="g2674"><g
       id="g2672"><path
         id="path2670"
         fill="#000000"
         d="M488.534,4.267C486.4,2.133,484.267,0,480.001,0H32c-2.133,0-6.399,2.133-8.533,4.267    c-2.134,2.134-2.133,4.267-2.133,8.533l42.667,426.667c0,4.267,4.267,8.533,6.399,8.533l192,64c2.133,0,2.133,0,4.267,0    c2.133,0,2.133,0,4.267,0L441.6,448c4.267-2.133,6.399-4.267,6.399-8.533L490.666,12.8C490.668,10.668,490.668,6.4,488.534,4.267z     M256.001,386.134c0,2.133-2.134,6.4-4.267,8.533s-4.393,2.416-6.525,2.416l-2.007-0.283l-74.667-21.333    c-4.267-2.133-6.399-4.267-8.533-8.533L149.335,313.6c-2.133-6.399,2.133-10.667,8.533-12.8    c6.399-2.133,10.667,2.133,12.801,8.533l8.533,46.933l55.467,14.934V130.134H117.334c-6.399,0-10.667-4.267-10.667-10.667    c0-6.399,4.267-10.667,10.667-10.667h128c6.399,0,10.667,4.267,10.667,10.667V386.134z M405.334,121.6l-10.667,42.667    c-2.133,6.399-6.482,9.559-12.8,8.533c-6.658-1.08-9.208-6.435-8.533-12.801c0.804-7.594,6.399-29.866,6.399-29.866h-83.2V236.8    H371.2c2.133,0,6.399,2.133,8.533,4.267c2.133,2.133,2.133,6.399,2.133,8.533l-21.333,117.333c0,4.267-4.267,6.399-6.399,8.533    l-64,21.333c-2.133,0-9.884,2.95-14.934-6.399c-2.133-6.399,2.133-10.667,6.399-12.801l57.6-19.2l17.067-98.134h-72.534    c-6.399,0-10.667-4.267-10.667-10.667v-128c0-6.399,4.267-10.667,10.667-10.667h106.667c4.267,0,7.187,0.912,9.975,2.067    C406.289,115.449,405.334,119.467,405.334,121.6z" /></g></g><g
     id="g2676" /><g
     id="g2678" /><g
     id="g2680" /><g
     id="g2682" /><g
     id="g2684" /><g
     id="g2686" /><g
     id="g2688" /><g
     id="g2690" /><g
     id="g2692" /><g
     id="g2694" /><g
     id="g2696" /><g
     id="g2698" /><g
     id="g2700" /><g
     id="g2702" /><g
     id="g2704" /></svg>