<?xml version="1.0" encoding="UTF-8" standalone="no"?>
<svg
   xmlns:dc="http://purl.org/dc/elements/1.1/"
   xmlns:cc="http://creativecommons.org/ns#"
   xmlns:rdf="http://www.w3.org/1999/02/22-rdf-syntax-ns#"
   xmlns:svg="http://www.w3.org/2000/svg"
   xmlns="http://www.w3.org/2000/svg"
   xmlns:sodipodi="http://sodipodi.sourceforge.net/DTD/sodipodi-0.dtd"
   xmlns:inkscape="http://www.inkscape.org/namespaces/inkscape"
   version="1.0"
   width="512"
   height="512"
   viewBox="0 0 383.99999 384.00001"
   preserveAspectRatio="xMidYMid meet"
   id="svg3721"
   sodipodi:docname="react.svg"
   inkscape:version="0.92.2 (5c3e80d, 2017-08-06)">
  <sodipodi:namedview
     pagecolor="#ffffff"
     bordercolor="#666666"
     borderopacity="1"
     objecttolerance="10"
     gridtolerance="10"
     guidetolerance="10"
     inkscape:pageopacity="0"
     inkscape:pageshadow="2"
     inkscape:window-width="1366"
     inkscape:window-height="705"
     id="namedview3723"
     showgrid="false"
     inkscape:zoom="0.83039936"
     inkscape:cx="-73.854622"
     inkscape:cy="260.65933"
     inkscape:window-x="-8"
     inkscape:window-y="-8"
     inkscape:window-maximized="1"
     inkscape:current-layer="svg3721"
     units="px" />
  <defs
     id="defs3725" />
  <metadata
     id="metadata3713">
Created by potrace 1.15, written by Peter Selinger 2001-2017
<rdf:RDF>
  <cc:Work
     rdf:about="">
    <dc:format>image/svg+xml</dc:format>
    <dc:type
       rdf:resource="http://purl.org/dc/dcmitype/StillImage" />
    <dc:title />
  </cc:Work>
</rdf:RDF>
</metadata>
  <g
     style="fill:#000000;stroke:none;opacity:1"
     transform="matrix(0.20521801,0,0,-0.20521801,-69.274305,403.19354)"
     id="g3719">
    <path
       inkscape:connector-curvature="0"
       d="m 822,1849 c -50,-25 -85,-67 -108,-130 -20,-52 -24,-261 -6,-322 8,-29 8,-39 -1,-41 -96,-28 -211,-92 -276,-156 -154,-149 -91,-318 164,-445 50,-25 99,-45 109,-45 14,0 17,-5 12,-22 -4,-13 -11,-60 -17,-106 -21,-162 23,-308 110,-364 42,-27 52,-29 116,-25 86,5 188,49 288,125 l 68,52 52,-45 c 125,-110 303,-163 393,-117 51,26 78,56 106,117 19,42 22,67 23,165 0,63 -3,135 -7,160 l -8,45 108,51 c 170,82 253,170 254,272 0,28 -8,67 -18,88 -37,78 -145,161 -284,217 l -65,26 5,43 c 3,24 5,97 5,163 0,111 -2,124 -28,177 -19,38 -45,71 -80,99 -51,41 -53,41 -116,36 -78,-6 -197,-62 -288,-136 -54,-45 -63,-49 -74,-35 -7,9 -39,36 -71,60 -131,101 -277,139 -366,93 z m 183,-148 c 33,-15 86,-48 117,-73 l 57,-45 -43,-50 c -23,-28 -51,-62 -62,-76 -16,-22 -36,-30 -114,-45 -52,-11 -98,-17 -102,-13 -24,22 -35,189 -17,256 23,83 64,94 164,46 z m 694,-2 c 10,-17 22,-53 25,-80 7,-51 -9,-208 -23,-222 -10,-10 -205,20 -209,33 -2,5 -28,43 -58,82 l -54,73 42,37 c 60,53 172,108 219,108 33,0 42,-5 58,-31 z m -281,-422 c 25,-13 152,-221 152,-248 0,-16 -42,-96 -107,-204 l -29,-50 h -154 -153 l -58,94 c -82,134 -86,144 -65,189 10,20 42,78 72,129 62,105 48,98 224,101 59,1 104,-3 118,-11 z m 497,-87 c 77,-35 140,-82 159,-118 13,-25 13,-32 -1,-60 -9,-18 -33,-46 -54,-63 -36,-28 -177,-99 -197,-99 -5,0 -27,44 -49,97 l -39,98 40,93 c 45,104 35,101 141,52 z M 775,1163 c 10,-27 28,-68 40,-93 22,-44 22,-45 4,-75 -11,-16 -28,-58 -40,-92 -15,-46 -25,-63 -39,-63 -10,0 -54,18 -98,40 -79,40 -162,113 -162,144 0,23 58,84 107,113 41,24 150,72 164,73 4,0 14,-21 24,-47 z M 972,655 c 77,-12 105,-20 115,-34 7,-11 35,-45 62,-77 27,-32 47,-62 45,-66 -10,-17 -127,-91 -180,-114 -65,-28 -115,-31 -136,-6 -22,24 -38,87 -38,148 0,48 19,164 26,164 2,0 50,-7 106,-15 z m 745,-12 c 5,-16 8,-71 8,-123 0,-123 -21,-173 -75,-178 -19,-2 -51,1 -71,7 -35,11 -132,71 -178,111 l -23,20 63,78 c 34,42 63,78 64,79 1,3 164,29 192,32 7,0 16,-11 20,-26 z"
       id="path3715" />
    <path
       inkscape:connector-curvature="0"
       d="m 1204,1181 c -97,-59 -110,-173 -29,-251 34,-33 40,-35 105,-35 65,0 71,2 104,34 20,19 41,50 47,68 22,69 -14,153 -82,188 -39,21 -108,19 -145,-4 z"
       id="path3717" />
  </g>
</svg>
