<?xml version="1.0" encoding="UTF-8" standalone="no"?>
<svg
   xmlns:dc="http://purl.org/dc/elements/1.1/"
   xmlns:cc="http://creativecommons.org/ns#"
   xmlns:rdf="http://www.w3.org/1999/02/22-rdf-syntax-ns#"
   xmlns:svg="http://www.w3.org/2000/svg"
   xmlns="http://www.w3.org/2000/svg"
   xmlns:sodipodi="http://sodipodi.sourceforge.net/DTD/sodipodi-0.dtd"
   xmlns:inkscape="http://www.inkscape.org/namespaces/inkscape"
   version="1.0"
   width="512"
   height="512"
   viewBox="0 0 384 384"
   preserveAspectRatio="xMidYMid meet"
   id="svg4039"
   sodipodi:docname="jquery.svg"
   inkscape:version="0.92.2 (5c3e80d, 2017-08-06)">
  <sodipodi:namedview
     pagecolor="#ffffff"
     bordercolor="#666666"
     borderopacity="1"
     objecttolerance="10"
     gridtolerance="10"
     guidetolerance="10"
     inkscape:pageopacity="0"
     inkscape:pageshadow="2"
     inkscape:window-width="640"
     inkscape:window-height="480"
     id="namedview4041"
     showgrid="false"
     inkscape:zoom="0.22125"
     inkscape:cx="513.33333"
     inkscape:cy="533.33333"
     inkscape:window-x="0"
     inkscape:window-y="0"
     inkscape:window-maximized="0"
     inkscape:current-layer="svg4039"
     units="px" />
  <metadata
     id="metadata4045">
    <rdf:RDF>
      <cc:Work
         rdf:about="">
        <dc:format>image/svg+xml</dc:format>
        <dc:type
           rdf:resource="http://purl.org/dc/dcmitype/StillImage" />
        <dc:title></dc:title>
      </cc:Work>
    </rdf:RDF>
  </metadata>
  <defs
     id="defs4043" />
  <g
     id="g4037"
     transform="matrix(0.04573483,0,0,-0.04573483,18.069522,375.26576)"
     style="fill:#ffa31e;stroke:none">
    <path
       id="path4017"
       d="m 4267,7918 c -70,-106 -101,-167 -137,-276 -94,-281 -49,-574 135,-887 270,-460 682,-695 1215,-695 292,0 494,65 673,218 61,52 152,154 181,203 l 16,28 -89,-39 c -204,-89 -331,-115 -551,-115 -159,0 -185,3 -284,29 -443,114 -866,457 -1023,829 -93,220 -125,505 -82,731 5,27 7,51 5,53 -2,2 -29,-33 -59,-79 z"
       inkscape:connector-curvature="0" />
    <path
       id="path4019"
       d="m 3081,7623 c -165,-207 -279,-442 -325,-670 -41,-200 -37,-500 9,-727 90,-445 355,-861 765,-1201 287,-238 638,-398 1010,-460 135,-23 422,-31 561,-15 337,37 665,151 920,321 123,83 323,282 408,407 55,82 171,296 171,317 0,4 -46,-37 -103,-91 -138,-132 -263,-220 -432,-304 -153,-76 -275,-119 -423,-150 -436,-88 -881,-18 -1317,209 -648,337 -1038,782 -1178,1346 -79,317 -82,604 -11,1043 3,23 5,42 3,42 -3,0 -29,-30 -58,-67 z"
       inkscape:connector-curvature="0" />
    <path
       id="path4021"
       d="m 1707,7188 c -10,-5 -37,-30 -59,-54 -286,-310 -468,-712 -519,-1148 -17,-146 -6,-489 20,-646 137,-808 626,-1546 1341,-2025 507,-339 1036,-495 1677,-495 465,0 822,82 1201,275 449,228 836,605 1042,1014 l 41,83 -94,-85 c -435,-393 -959,-595 -1598,-614 -437,-14 -860,64 -1227,226 -273,120 -683,383 -937,601 -128,110 -337,328 -428,448 -491,642 -644,1422 -457,2326 11,55 19,100 18,102 -2,1 -11,-2 -21,-8 z"
       inkscape:connector-curvature="0" />
    <path
       id="path4023"
       d="m 1862,2169 c -180,-23 -360,-109 -481,-230 -97,-97 -208,-288 -260,-448 -53,-164 -74,-404 -48,-553 38,-219 182,-369 383,-397 103,-15 481,-21 804,-13 l 285,7 30,130 c 17,72 34,142 38,157 l 7,28 h -59 c -32,0 -72,3 -88,6 l -30,6 39,106 c 99,269 158,498 158,611 -1,196 -112,400 -268,495 -143,86 -324,119 -510,95 z m 226,-369 c 93,-41 162,-145 162,-247 0,-44 -37,-199 -112,-471 l -62,-224 -216,4 -216,3 -59,30 c -65,33 -98,73 -116,139 -30,111 74,535 161,654 40,56 92,93 169,119 87,31 210,28 289,-7 z"
       inkscape:connector-curvature="0" />
    <path
       id="path4025"
       d="m 7007,1620 c -148,-215 -272,-390 -276,-390 -4,0 -20,42 -37,93 l -29,92 -189,3 -189,2 6,-47 c 3,-27 29,-124 56,-216 28,-93 56,-198 62,-234 16,-91 7,-225 -20,-298 -12,-33 -25,-68 -28,-78 -5,-16 7,-17 187,-15 l 192,3 32,90 c 73,202 216,436 446,725 270,341 470,618 470,652 0,4 -93,8 -207,8 h -208 z"
       inkscape:connector-curvature="0" />
    <path
       id="path4027"
       d="m 4685,1843 c -150,-23 -307,-96 -404,-188 -40,-38 -81,-88 -99,-122 -89,-169 -174,-546 -159,-707 14,-150 109,-252 267,-285 74,-16 447,-24 650,-14 l 165,8 32,145 c 18,80 32,148 32,153 1,4 -113,7 -251,7 -312,1 -441,11 -477,38 -39,29 -55,80 -41,131 l 11,41 h 413 412 l 23,119 c 60,325 44,451 -72,558 -91,84 -180,114 -347,118 -69,2 -138,1 -155,-2 z m 131,-328 c 72,-21 97,-52 102,-125 l 4,-60 h -231 -231 l 10,26 c 16,41 67,109 95,128 70,46 163,57 251,31 z"
       inkscape:connector-curvature="0" />
    <path
       id="path4029"
       d="m 655,1808 c -2,-7 -15,-65 -30,-128 -14,-63 -28,-125 -32,-137 l -5,-23 h 189 189 l 30,145 c 17,80 28,148 25,150 -2,3 -85,5 -183,5 -134,0 -180,-3 -183,-12 z"
       inkscape:connector-curvature="0" />
    <path
       id="path4031"
       d="m 5576,1803 c -9,-33 -266,-1248 -266,-1260 0,-10 41,-13 173,-13 h 174 l 103,485 104,485 h 389 389 l -7,56 c -11,88 -33,151 -68,191 -60,69 -53,68 -544,71 -418,3 -442,2 -447,-15 z"
       inkscape:connector-curvature="0" />
    <path
       id="path4033"
       d="m 2892,1713 c -78,-351 -142,-735 -142,-852 0,-176 91,-294 248,-321 44,-7 187,-10 421,-8 l 355,3 127,605 c 70,333 130,620 134,638 l 6,32 h -169 c -169,0 -170,0 -176,-23 -3,-13 -48,-219 -101,-458 -53,-239 -98,-442 -101,-451 -5,-16 -23,-18 -183,-18 h -178 l -7,38 c -17,102 -3,250 40,437 46,197 71,329 79,403 l 7,72 h -169 -170 z"
       inkscape:connector-curvature="0" />
    <path
       id="path4035"
       d="M 569,1393 C 546,1332 509,1192 491,1096 423,746 409,676 385,600 353,500 301,382 277,358 266,347 234,340 175,335 129,331 87,323 82,316 68,298 6,20 14,12 27,-1 319,-3 383,10 c 200,39 265,132 362,520 33,132 195,860 195,877 0,10 -40,13 -180,13 H 580 Z"
       inkscape:connector-curvature="0" />
  </g>
</svg>
