<?xml version="1.0" encoding="UTF-8" standalone="no"?>
<svg
   xmlns:dc="http://purl.org/dc/elements/1.1/"
   xmlns:cc="http://creativecommons.org/ns#"
   xmlns:rdf="http://www.w3.org/1999/02/22-rdf-syntax-ns#"
   xmlns:svg="http://www.w3.org/2000/svg"
   xmlns="http://www.w3.org/2000/svg"
   xmlns:sodipodi="http://sodipodi.sourceforge.net/DTD/sodipodi-0.dtd"
   xmlns:inkscape="http://www.inkscape.org/namespaces/inkscape"
   version="1.0"
   width="512"
   height="512"
   viewBox="0 0 384 384"
   preserveAspectRatio="xMidYMid meet"
   id="svg3755"
   sodipodi:docname="sass.svg"
   inkscape:version="0.92.2 (5c3e80d, 2017-08-06)">
  <sodipodi:namedview
     pagecolor="#ffffff"
     bordercolor="#666666"
     borderopacity="1"
     objecttolerance="10"
     gridtolerance="10"
     guidetolerance="10"
     inkscape:pageopacity="0"
     inkscape:pageshadow="2"
     inkscape:window-width="1366"
     inkscape:window-height="705"
     id="namedview3757"
     showgrid="false"
     inkscape:zoom="0.49166667"
     inkscape:cx="345.33333"
     inkscape:cy="240"
     inkscape:window-x="-8"
     inkscape:window-y="-8"
     inkscape:window-maximized="1"
     inkscape:current-layer="svg3755"
     units="px" />
  <metadata
     id="metadata3761">
    <rdf:RDF>
      <cc:Work
         rdf:about="">
        <dc:format>image/svg+xml</dc:format>
        <dc:type
           rdf:resource="http://purl.org/dc/dcmitype/StillImage" />
        <dc:title></dc:title>
      </cc:Work>
    </rdf:RDF>
  </metadata>
  <defs
     id="defs3759" />
  <g
     id="g3753"
     transform="matrix(0.07601357,0,0,-0.07601357,3.2773406,328.63874)"
     style="fill:#ffa31e;stroke:none">
    <path
       id="path3751"
       d="M 2029,3586 C 1490,3508 791,3154 414,2768 211,2560 99,2362 75,2169 c -13,-107 39,-247 144,-386 103,-137 237,-252 536,-458 94,-65 191,-135 218,-156 l 47,-37 -97,-53 C 593,902 363,715 290,566 199,379 217,180 335,71 387,23 427,11 550,4 c 203,-12 389,60 551,214 176,167 258,374 246,627 -3,81 -11,129 -30,185 -14,41 -24,76 -24,76 12,9 237,134 249,139 15,6 15,2 -2,-53 -63,-202 -50,-453 32,-617 51,-102 96,-135 180,-135 111,0 159,62 308,398 14,31 15,27 12,-67 -6,-158 31,-246 111,-265 41,-10 108,26 156,82 76,92 295,514 422,814 29,70 56,124 60,120 3,-4 16,-47 28,-97 12,-49 44,-136 70,-191 l 49,-102 -67,-85 C 2865,1000 2797,918 2751,864 2605,692 2585,647 2636,599 c 24,-22 33,-24 117,-23 76,1 106,7 172,31 171,64 261,146 299,273 21,70 19,129 -5,215 -11,39 -22,80 -25,92 -4,14 6,39 33,80 57,85 138,220 193,326 28,51 51,85 53,77 3,-8 14,-53 26,-100 12,-47 39,-125 61,-173 l 39,-89 -71,-70 c -187,-187 -260,-410 -161,-488 97,-76 411,86 494,255 20,41 24,64 23,130 -1,46 -8,99 -17,125 -19,51 -18,52 58,74 137,41 325,45 485,12 101,-21 223,-83 284,-143 28,-27 62,-75 79,-111 25,-55 29,-71 25,-132 -4,-83 -34,-133 -115,-193 -85,-64 -44,-93 52,-38 131,75 192,204 165,351 -32,178 -182,339 -377,405 -202,68 -474,56 -668,-30 l -55,-24 -25,43 c -14,24 -37,72 -52,107 -24,57 -27,77 -27,184 -1,107 2,129 28,204 l 28,83 -21,21 c -39,40 -236,32 -274,-11 -9,-9 -25,-55 -37,-102 -25,-98 -112,-281 -228,-478 l -79,-133 -31,68 c -58,128 -61,264 -8,421 25,72 25,73 6,92 -25,25 -78,34 -155,26 -121,-12 -125,-16 -155,-136 -26,-102 -441,-1007 -470,-1025 -29,-18 -3,155 59,400 62,238 62,239 43,264 -24,33 -75,48 -112,34 l -28,-11 -4,99 c -3,104 -14,130 -69,172 -93,69 -274,-7 -445,-185 -76,-80 -88,-88 -313,-210 l -234,-127 -71,66 c -39,36 -138,118 -221,182 -280,217 -364,303 -428,437 -30,65 -32,76 -32,179 0,138 21,206 104,332 224,339 887,731 1427,843 418,87 781,14 858,-172 106,-253 -168,-647 -585,-842 -199,-92 -363,-134 -559,-143 -117,-5 -146,-3 -219,16 -92,23 -153,55 -215,111 -45,41 -66,42 -66,4 0,-62 75,-157 167,-211 206,-120 553,-119 933,3 207,66 377,172 528,328 181,187 282,389 299,596 25,314 -173,529 -567,615 -105,22 -396,28 -521,11 z m 96,-2056 c -1,-70 -52,-233 -156,-496 -81,-203 -130,-296 -161,-302 -25,-5 -46,35 -58,113 -13,80 -7,164 21,282 53,231 228,473 334,460 17,-2 20,-9 20,-57 z m 1560,-364 c 8,-52 -12,-131 -45,-179 -25,-36 -83,-81 -125,-97 l -28,-11 6,42 c 8,59 68,174 122,237 26,28 50,52 55,52 5,0 12,-20 15,-44 z M 1157,890 C 1166,729 1112,579 999,456 854,298 641,224 562,304 c -24,24 -27,34 -27,99 0,64 5,82 38,150 21,42 60,101 88,131 63,69 240,204 374,285 98,60 100,61 108,39 5,-13 11,-66 14,-118 z m 1854,11 c -29,-56 -71,-102 -135,-146 -85,-58 -87,-38 -6,51 40,43 91,103 114,132 38,49 41,51 44,28 2,-13 -6,-43 -17,-65 z"
       inkscape:connector-curvature="0" />
  </g>
</svg>
